# xmcd CD database file
#
# Track frame offsets:
#	150
#	2290
#	17127
#	29310
#	48582
#	61797
#	71822
#	86765
#	100387
#	113290
#	125027
#	135662
#	147502
#	156945
#	166747
#	176252
#	191442
#	202920
#	214722
#	226460
#	239007
#	249650
#	259250
#
# Disc length: 3600 seconds
#
# Revision: 3
# Processed by: cddbd v1.5.2PL0 Copyright (c) Steve Scherf et al.
# Submitted via: CDex 1.51
#
DISCID=3e0e0e17
DTITLE=Sacred Sounds Of Grass - Little White Church
DYEAR=1900
DGENRE=Country
TTITLE0=Hallo Everybody
TTITLE1=Little White Church
TTITLE2=Thinking About You
TTITLE3=Grave In The Valley
TTITLE4=You Go To Your Church
TTITLE5=Omerlang Cotillion
TTITLE6=Back To The Bible
TTITLE7=Pass Me Not
TTITLE8=I'm Using My Bible For A Roadmap
TTITLE9=Where You There When They Crucified My Lord
TTITLE10=A Sign Of His Wonderful Grace
TTITLE11=Wher No Stands Alone
TTITLE12=You Can't Hide From God
TTITLE13=I Hope That My Lord Will Let Me In
TTITLE14=Send My Your Adress From Heaven
TTITLE15=He Took Your Place
TTITLE16=Little Darling Pal Of Mine
TTITLE17=Wicked Path Of Sin
TTITLE18=Let Me Rest At The End Of My Journey
TTITLE19=No Mother Or Dad
TTITLE20=Somebody Touched Me
TTITLE21=Choes From Ihe Burning Bush
TTITLE22=I Saw The Light
EXTD=
EXTT0=
EXTT1=
EXTT2=
EXTT3=
EXTT4=
EXTT5=
EXTT6=
EXTT7=
EXTT8=
EXTT9=
EXTT10=
EXTT11=
EXTT12=
EXTT13=
EXTT14=
EXTT15=
EXTT16=
EXTT17=
EXTT18=
EXTT19=
EXTT20=
EXTT21=
EXTT22=
PLAYORDER=
